<mxfile host="app.diagrams.net" modified="2024-02-12T10:14:33.998Z" agent="Mozilla/5.0 (Windows NT 10.0; Win64; x64) AppleWebKit/537.36 (KHTML, like Gecko) Chrome/121.0.0.0 Safari/537.36 Edg/121.0.0.0" etag="GN_xrL3U42maWEMOrBCi" version="22.1.17" type="device">
  <diagram name="Page-1" id="Cqv8fOKj7WXAFAGasUe4">
    <mxGraphModel dx="2197" dy="819" grid="1" gridSize="10" guides="1" tooltips="1" connect="1" arrows="1" fold="1" page="1" pageScale="1" pageWidth="850" pageHeight="1100" math="0" shadow="0">
      <root>
        <mxCell id="0" />
        <mxCell id="1" parent="0" />
        <mxCell id="dnH7PSooZ6oyrXPffv9E-1" value="&lt;font style=&quot;font-size: 36px;&quot;&gt;A&lt;/font&gt;" style="ellipse;whiteSpace=wrap;html=1;aspect=fixed;" vertex="1" parent="1">
          <mxGeometry x="150" y="280" width="80" height="80" as="geometry" />
        </mxCell>
        <mxCell id="dnH7PSooZ6oyrXPffv9E-2" value="&lt;font style=&quot;font-size: 36px;&quot;&gt;B&lt;/font&gt;" style="ellipse;whiteSpace=wrap;html=1;aspect=fixed;" vertex="1" parent="1">
          <mxGeometry x="310" y="280" width="80" height="80" as="geometry" />
        </mxCell>
        <mxCell id="dnH7PSooZ6oyrXPffv9E-3" value="&lt;font style=&quot;font-size: 36px;&quot;&gt;C&lt;/font&gt;" style="ellipse;whiteSpace=wrap;html=1;aspect=fixed;" vertex="1" parent="1">
          <mxGeometry x="470" y="280" width="80" height="80" as="geometry" />
        </mxCell>
        <mxCell id="dnH7PSooZ6oyrXPffv9E-4" value="&lt;font style=&quot;font-size: 36px;&quot;&gt;D&lt;/font&gt;" style="ellipse;whiteSpace=wrap;html=1;aspect=fixed;" vertex="1" parent="1">
          <mxGeometry x="310" y="380" width="80" height="80" as="geometry" />
        </mxCell>
        <mxCell id="dnH7PSooZ6oyrXPffv9E-5" value="&lt;font style=&quot;font-size: 36px;&quot;&gt;E&lt;/font&gt;" style="ellipse;whiteSpace=wrap;html=1;aspect=fixed;" vertex="1" parent="1">
          <mxGeometry x="310" y="480" width="80" height="80" as="geometry" />
        </mxCell>
        <mxCell id="dnH7PSooZ6oyrXPffv9E-6" value="&lt;font style=&quot;font-size: 36px;&quot;&gt;H&lt;/font&gt;" style="ellipse;whiteSpace=wrap;html=1;aspect=fixed;" vertex="1" parent="1">
          <mxGeometry x="470" y="480" width="80" height="80" as="geometry" />
        </mxCell>
        <mxCell id="dnH7PSooZ6oyrXPffv9E-7" value="&lt;font style=&quot;font-size: 36px;&quot;&gt;I&lt;/font&gt;" style="ellipse;whiteSpace=wrap;html=1;aspect=fixed;" vertex="1" parent="1">
          <mxGeometry x="470" y="580" width="80" height="80" as="geometry" />
        </mxCell>
        <mxCell id="dnH7PSooZ6oyrXPffv9E-8" value="&lt;font style=&quot;font-size: 36px;&quot;&gt;J&lt;/font&gt;" style="ellipse;whiteSpace=wrap;html=1;aspect=fixed;" vertex="1" parent="1">
          <mxGeometry x="470" y="680" width="80" height="80" as="geometry" />
        </mxCell>
        <mxCell id="dnH7PSooZ6oyrXPffv9E-9" value="&lt;font style=&quot;font-size: 36px;&quot;&gt;K&lt;/font&gt;" style="ellipse;whiteSpace=wrap;html=1;aspect=fixed;" vertex="1" parent="1">
          <mxGeometry x="310" y="680" width="80" height="80" as="geometry" />
        </mxCell>
        <mxCell id="dnH7PSooZ6oyrXPffv9E-10" value="&lt;font style=&quot;font-size: 24px;&quot;&gt;END&lt;/font&gt;" style="ellipse;whiteSpace=wrap;html=1;aspect=fixed;" vertex="1" parent="1">
          <mxGeometry x="150" y="680" width="80" height="80" as="geometry" />
        </mxCell>
        <mxCell id="dnH7PSooZ6oyrXPffv9E-11" value="&lt;font style=&quot;font-size: 36px;&quot;&gt;F&lt;/font&gt;" style="ellipse;whiteSpace=wrap;html=1;aspect=fixed;" vertex="1" parent="1">
          <mxGeometry x="150" y="480" width="80" height="80" as="geometry" />
        </mxCell>
        <mxCell id="dnH7PSooZ6oyrXPffv9E-12" value="&lt;font style=&quot;font-size: 36px;&quot;&gt;G&lt;/font&gt;" style="ellipse;whiteSpace=wrap;html=1;aspect=fixed;" vertex="1" parent="1">
          <mxGeometry x="150" y="580" width="80" height="80" as="geometry" />
        </mxCell>
        <mxCell id="dnH7PSooZ6oyrXPffv9E-14" value="" style="endArrow=none;html=1;rounded=0;entryX=0;entryY=0.5;entryDx=0;entryDy=0;" edge="1" parent="1" target="dnH7PSooZ6oyrXPffv9E-2">
          <mxGeometry width="50" height="50" relative="1" as="geometry">
            <mxPoint x="230" y="320" as="sourcePoint" />
            <mxPoint x="280" y="270" as="targetPoint" />
          </mxGeometry>
        </mxCell>
        <mxCell id="dnH7PSooZ6oyrXPffv9E-15" value="" style="endArrow=none;html=1;rounded=0;entryX=0;entryY=0.5;entryDx=0;entryDy=0;" edge="1" parent="1">
          <mxGeometry width="50" height="50" relative="1" as="geometry">
            <mxPoint x="390" y="319.66" as="sourcePoint" />
            <mxPoint x="470" y="319.66" as="targetPoint" />
          </mxGeometry>
        </mxCell>
        <mxCell id="dnH7PSooZ6oyrXPffv9E-16" value="" style="endArrow=none;html=1;rounded=0;entryX=0;entryY=0.5;entryDx=0;entryDy=0;" edge="1" parent="1">
          <mxGeometry width="50" height="50" relative="1" as="geometry">
            <mxPoint x="390" y="519.71" as="sourcePoint" />
            <mxPoint x="470" y="519.71" as="targetPoint" />
          </mxGeometry>
        </mxCell>
        <mxCell id="dnH7PSooZ6oyrXPffv9E-17" value="" style="endArrow=none;html=1;rounded=0;entryX=0;entryY=0.5;entryDx=0;entryDy=0;" edge="1" parent="1">
          <mxGeometry width="50" height="50" relative="1" as="geometry">
            <mxPoint x="230" y="519.71" as="sourcePoint" />
            <mxPoint x="310" y="519.71" as="targetPoint" />
          </mxGeometry>
        </mxCell>
        <mxCell id="dnH7PSooZ6oyrXPffv9E-18" value="" style="endArrow=none;html=1;rounded=0;entryX=0;entryY=0.5;entryDx=0;entryDy=0;" edge="1" parent="1">
          <mxGeometry width="50" height="50" relative="1" as="geometry">
            <mxPoint x="390" y="719.7100000000002" as="sourcePoint" />
            <mxPoint x="470" y="719.7100000000002" as="targetPoint" />
          </mxGeometry>
        </mxCell>
        <mxCell id="dnH7PSooZ6oyrXPffv9E-19" value="" style="endArrow=none;html=1;rounded=0;entryX=0.5;entryY=1;entryDx=0;entryDy=0;exitX=0.5;exitY=0;exitDx=0;exitDy=0;" edge="1" parent="1" source="dnH7PSooZ6oyrXPffv9E-4" target="dnH7PSooZ6oyrXPffv9E-2">
          <mxGeometry width="50" height="50" relative="1" as="geometry">
            <mxPoint x="240" y="330" as="sourcePoint" />
            <mxPoint x="320" y="330" as="targetPoint" />
          </mxGeometry>
        </mxCell>
        <mxCell id="dnH7PSooZ6oyrXPffv9E-20" value="" style="endArrow=none;html=1;rounded=0;entryX=0.5;entryY=1;entryDx=0;entryDy=0;exitX=0.5;exitY=0;exitDx=0;exitDy=0;" edge="1" parent="1" source="dnH7PSooZ6oyrXPffv9E-5">
          <mxGeometry width="50" height="50" relative="1" as="geometry">
            <mxPoint x="349.89000000000004" y="500" as="sourcePoint" />
            <mxPoint x="349.89000000000004" y="460" as="targetPoint" />
          </mxGeometry>
        </mxCell>
        <mxCell id="dnH7PSooZ6oyrXPffv9E-21" value="" style="endArrow=none;html=1;rounded=0;entryX=0.5;entryY=1;entryDx=0;entryDy=0;" edge="1" parent="1">
          <mxGeometry width="50" height="50" relative="1" as="geometry">
            <mxPoint x="510" y="580" as="sourcePoint" />
            <mxPoint x="509.89000000000004" y="560" as="targetPoint" />
          </mxGeometry>
        </mxCell>
        <mxCell id="dnH7PSooZ6oyrXPffv9E-23" value="" style="endArrow=none;html=1;rounded=0;entryX=0.5;entryY=1;entryDx=0;entryDy=0;exitX=0.5;exitY=0;exitDx=0;exitDy=0;" edge="1" parent="1" target="dnH7PSooZ6oyrXPffv9E-7">
          <mxGeometry width="50" height="50" relative="1" as="geometry">
            <mxPoint x="509.8900000000001" y="680" as="sourcePoint" />
            <mxPoint x="509.8900000000001" y="640" as="targetPoint" />
          </mxGeometry>
        </mxCell>
        <mxCell id="dnH7PSooZ6oyrXPffv9E-24" value="" style="endArrow=none;html=1;rounded=0;entryX=0;entryY=0.5;entryDx=0;entryDy=0;exitX=1;exitY=0.5;exitDx=0;exitDy=0;" edge="1" parent="1" source="dnH7PSooZ6oyrXPffv9E-10" target="dnH7PSooZ6oyrXPffv9E-9">
          <mxGeometry width="50" height="50" relative="1" as="geometry">
            <mxPoint x="350" y="780" as="sourcePoint" />
            <mxPoint x="349.7100000000001" y="760" as="targetPoint" />
          </mxGeometry>
        </mxCell>
        <mxCell id="dnH7PSooZ6oyrXPffv9E-25" value="" style="endArrow=none;html=1;rounded=0;entryX=0.5;entryY=1;entryDx=0;entryDy=0;exitX=0.5;exitY=0;exitDx=0;exitDy=0;" edge="1" parent="1" source="dnH7PSooZ6oyrXPffv9E-12">
          <mxGeometry width="50" height="50" relative="1" as="geometry">
            <mxPoint x="189.89000000000001" y="600" as="sourcePoint" />
            <mxPoint x="189.89000000000001" y="560" as="targetPoint" />
          </mxGeometry>
        </mxCell>
        <mxCell id="dnH7PSooZ6oyrXPffv9E-26" value="&lt;font style=&quot;font-size: 24px;&quot;&gt;START&lt;/font&gt;" style="ellipse;whiteSpace=wrap;html=1;aspect=fixed;" vertex="1" parent="1">
          <mxGeometry x="30" y="280" width="80" height="80" as="geometry" />
        </mxCell>
        <mxCell id="dnH7PSooZ6oyrXPffv9E-27" value="" style="endArrow=none;html=1;rounded=0;entryX=0;entryY=0.5;entryDx=0;entryDy=0;" edge="1" parent="1" target="dnH7PSooZ6oyrXPffv9E-1">
          <mxGeometry width="50" height="50" relative="1" as="geometry">
            <mxPoint x="110" y="319.66" as="sourcePoint" />
            <mxPoint x="140" y="320" as="targetPoint" />
          </mxGeometry>
        </mxCell>
      </root>
    </mxGraphModel>
  </diagram>
</mxfile>
